<?xml version="1.0" encoding="utf-8"?>
<svg width="95" height="88" viewBox="0 0 95 88" fill="none" xmlns="http://www.w3.org/2000/svg" xmlns:bx="https://boxy-svg.com"><g clip-path="url(#clip0_388_377)"><path d="M47.2607 41.7152C47.2607 41.6261 47.2805 41.5588 47.3201 41.5133C47.3617 41.4688 47.4201 41.446 47.4943 41.446C47.5705 41.446 47.6299 41.4688 47.6724 41.5133C47.7169 41.5588 47.7397 41.6261 47.7397 41.7152C47.7397 41.8003 47.7169 41.8656 47.6724 41.9131C47.6299 41.9606 47.5705 41.9844 47.4943 41.9844C47.428 41.9844 47.3726 41.9626 47.328 41.921C47.2825 41.8795 47.2607 41.8102 47.2607 41.7152Z" fill="white"/><path d="M32.953 58.1057L11.5215 69.0435C10.0698 69.7838 8.4004 68.5428 8.69035 66.9407L11.8006 49.7783L32.953 58.1057Z" fill="#5CE1E6"/><mask id="mask0_388_377" style="mask-type:luminance" maskUnits="userSpaceOnUse" x="2" y="11" width="54" height="54"><path d="M2.84521 11.2133H55.8552V64.1867H2.84521V11.2133Z" fill="white"/></mask><g mask="url(#mask0_388_377)"><path d="M55.761 37.6619C55.761 38.0953 55.7501 38.5278 55.7293 38.9602C55.7075 39.3927 55.6759 39.8241 55.6333 40.2546C55.5908 40.6851 55.5383 41.1145 55.475 41.543C55.4116 41.9715 55.3374 42.398 55.2523 42.8226C55.1682 43.2471 55.0732 43.6686 54.9683 44.0892C54.8634 44.5088 54.7476 44.9254 54.622 45.3401C54.4963 45.7537 54.3607 46.1654 54.2152 46.5731C54.0688 46.9798 53.9134 47.3835 53.7472 47.7833C53.5819 48.1841 53.4067 48.579 53.2217 48.9708C53.0366 49.3617 52.8417 49.7486 52.6378 50.1306C52.434 50.5116 52.2202 50.8886 51.9976 51.2597C51.7759 51.6308 51.5444 51.997 51.3039 52.3562C51.0634 52.7164 50.814 53.0697 50.5558 53.418C50.2985 53.7654 50.0323 54.1068 49.7572 54.4412C49.4831 54.7757 49.2 55.1033 48.9091 55.4239C48.6191 55.7445 48.3203 56.0582 48.0145 56.364C47.7077 56.6708 47.395 56.9686 47.0744 57.2596C46.7538 57.5505 46.4252 57.8326 46.0908 58.1077C45.7563 58.3818 45.4149 58.648 45.0675 58.9062C44.7202 59.1645 44.3659 59.4129 44.0067 59.6534C43.6465 59.8939 43.2803 60.1254 42.9093 60.3481C42.5382 60.5707 42.1621 60.7845 41.7801 60.9883C41.3982 61.1922 41.0112 61.3871 40.6203 61.5722C40.2295 61.7572 39.8336 61.9324 39.4338 62.0977C39.034 62.2639 38.6303 62.4193 38.2226 62.5647C37.8149 62.7112 37.4042 62.8468 36.9896 62.9724C36.5759 63.0981 36.1583 63.2129 35.7387 63.3188C35.3191 63.4237 34.8966 63.5187 34.4721 63.6028C34.0475 63.6869 33.621 63.7611 33.1925 63.8245C32.765 63.8888 32.3356 63.9412 31.9041 63.9838C31.4736 64.0264 31.0422 64.058 30.6097 64.0798C30.1773 64.1006 29.7448 64.1115 29.3124 64.1115C28.8789 64.1115 28.4465 64.1006 28.014 64.0798C27.5816 64.058 27.1501 64.0264 26.7197 63.9838C26.2892 63.9412 25.8597 63.8888 25.4312 63.8245C25.0027 63.7611 24.5762 63.6869 24.1517 63.6028C23.7272 63.5187 23.3056 63.4237 22.885 63.3188C22.4654 63.2129 22.0488 63.0981 21.6342 62.9724C21.2206 62.8468 20.8089 62.7112 20.4022 62.5647C19.9945 62.4193 19.5907 62.2639 19.1909 62.0977C18.7901 61.9324 18.3953 61.7572 18.0034 61.5722C17.6125 61.3871 17.2256 61.1922 16.8436 60.9883C16.4626 60.7845 16.0856 60.5707 15.7145 60.3481C15.3434 60.1254 14.9773 59.8939 14.6181 59.6534C14.2578 59.4129 13.9046 59.1645 13.5562 58.9062C13.2089 58.648 12.8675 58.3818 12.533 58.1077C12.1985 57.8326 11.871 57.5505 11.5503 57.2596C11.2297 56.9686 10.916 56.6708 10.6102 56.364C10.3035 56.0582 10.0056 55.7445 9.71467 55.4239C9.42373 55.1033 9.1417 54.7757 8.86659 54.4412C8.59248 54.1068 8.32628 53.7654 8.068 53.418C7.81071 53.0697 7.56133 52.7164 7.32087 52.3562C7.0804 51.997 6.84883 51.6308 6.62618 51.2597C6.40352 50.8886 6.18977 50.5116 5.98592 50.1306C5.78206 49.7486 5.58712 49.3617 5.40206 48.9708C5.21701 48.579 5.04186 48.1841 4.8766 47.7833C4.71035 47.3835 4.55498 46.9798 4.40951 46.5731C4.26305 46.1654 4.12748 45.7537 4.0018 45.3401C3.87613 44.9254 3.76133 44.5088 3.65545 44.0892C3.55055 43.6686 3.45555 43.2471 3.37144 42.8226C3.28732 42.398 3.21311 41.9715 3.14977 41.543C3.08545 41.1145 3.033 40.6851 2.99045 40.2546C2.9479 39.8241 2.91623 39.3927 2.89545 38.9602C2.87368 38.5278 2.86279 38.0953 2.86279 37.6619C2.86279 37.2294 2.87368 36.797 2.89545 36.3645C2.91623 35.9321 2.9479 35.5006 2.99045 35.0702C3.033 34.6387 3.08545 34.2092 3.14977 33.7817C3.21311 33.3532 3.28732 32.9267 3.37144 32.5022C3.45555 32.0777 3.55055 31.6551 3.65545 31.2355C3.76133 30.8159 3.87613 30.3983 4.0018 29.9847C4.12748 29.5701 4.26305 29.1594 4.40951 28.7517C4.55498 28.344 4.71035 27.9402 4.8766 27.5404C5.04186 27.1406 5.21701 26.7448 5.40206 26.3539C5.58712 25.963 5.78206 25.5761 5.98592 25.1941C6.18977 24.8121 6.40352 24.4361 6.62618 24.065C6.84883 23.6939 7.0804 23.3278 7.32087 22.9676C7.56133 22.6083 7.81071 22.2541 8.068 21.9067C8.32628 21.5594 8.59248 21.218 8.86659 20.8835C9.1417 20.549 9.42373 20.2215 9.71467 19.8998C10.0056 19.5792 10.3035 19.2665 10.6102 18.9597C10.916 18.654 11.2297 18.3551 11.5503 18.0652C11.871 17.7742 12.1985 17.4912 12.533 17.2171C12.8675 16.942 13.2089 16.6758 13.5562 16.4185C13.9046 16.1602 14.2578 15.9108 14.6181 15.6704C14.9773 15.4299 15.3434 15.1983 15.7145 14.9767C16.0856 14.754 16.4626 14.5403 16.8436 14.3364C17.2256 14.1326 17.6125 13.9376 18.0034 13.7526C18.3953 13.5675 18.7901 13.3923 19.1909 13.2271C19.5907 13.0608 19.9945 12.9055 20.4022 12.759C20.8089 12.6135 21.2206 12.478 21.6342 12.3523C22.0488 12.2266 22.4654 12.1108 22.885 12.0059C23.3056 11.901 23.7272 11.806 24.1517 11.7219C24.5762 11.6368 25.0027 11.5636 25.4312 11.4993C25.8597 11.4359 26.2892 11.3835 26.7197 11.3409C27.1501 11.2984 27.5816 11.2667 28.014 11.2449C28.4465 11.2242 28.8789 11.2133 29.3124 11.2133C29.7448 11.2133 30.1773 11.2242 30.6097 11.2449C31.0422 11.2667 31.4736 11.2984 31.9041 11.3409C32.3356 11.3835 32.765 11.4359 33.1925 11.4993C33.621 11.5636 34.0475 11.6368 34.4721 11.7219C34.8966 11.806 35.3191 11.901 35.7387 12.0059C36.1583 12.1108 36.5759 12.2266 36.9896 12.3523C37.4042 12.478 37.8149 12.6135 38.2226 12.759C38.6303 12.9055 39.034 13.0608 39.4338 13.2271C39.8336 13.3923 40.2295 13.5675 40.6203 13.7526C41.0112 13.9376 41.3982 14.1326 41.7801 14.3364C42.1621 14.5403 42.5382 14.754 42.9093 14.9767C43.2803 15.1983 43.6465 15.4299 44.0067 15.6704C44.3659 15.9108 44.7202 16.1602 45.0675 16.4185C45.4149 16.6758 45.7563 16.942 46.0908 17.2171C46.4252 17.4912 46.7538 17.7742 47.0744 18.0652C47.395 18.3551 47.7077 18.654 48.0145 18.9597C48.3203 19.2665 48.6191 19.5792 48.9091 19.8998C49.2 20.2215 49.4831 20.549 49.7572 20.8835C50.0323 21.218 50.2985 21.5594 50.5558 21.9067C50.814 22.2541 51.0634 22.6083 51.3039 22.9676C51.5444 23.3278 51.7759 23.6939 51.9976 24.065C52.2202 24.4361 52.434 24.8121 52.6378 25.1941C52.8417 25.5761 53.0366 25.963 53.2217 26.3539C53.4067 26.7448 53.5819 27.1406 53.7472 27.5404C53.9134 27.9402 54.0688 28.344 54.2152 28.7517C54.3607 29.1594 54.4963 29.5701 54.622 29.9847C54.7476 30.3983 54.8634 30.8159 54.9683 31.2355C55.0732 31.6551 55.1682 32.0777 55.2523 32.5022C55.3374 32.9267 55.4116 33.3532 55.475 33.7817C55.5383 34.2092 55.5908 34.6387 55.6333 35.0702C55.6759 35.5006 55.7075 35.9321 55.7293 36.3645C55.7501 36.797 55.761 37.2294 55.761 37.6619Z" fill="#5CE1E6"/></g><path d="M34.8483 26.3024V29.2385H23.7769V26.3024C23.7769 26.1698 23.7897 26.0372 23.8154 25.9066C23.8412 25.776 23.8798 25.6493 23.9312 25.5256C23.9817 25.4029 24.044 25.2861 24.1183 25.1753C24.1925 25.0645 24.2766 24.9616 24.3706 24.8676C24.4656 24.7735 24.5675 24.6894 24.6784 24.6152C24.7892 24.541 24.906 24.4786 25.0297 24.4282C25.1524 24.3767 25.279 24.3381 25.4097 24.3124C25.5413 24.2867 25.6729 24.2738 25.8065 24.2738H32.8187C32.9523 24.2738 33.0839 24.2867 33.2145 24.3124C33.3451 24.3381 33.4718 24.3767 33.5955 24.4282C33.7182 24.4786 33.835 24.541 33.9458 24.6152C34.0566 24.6894 34.1596 24.7735 34.2536 24.8676C34.3476 24.9616 34.4317 25.0645 34.5059 25.1753C34.5801 25.2861 34.6425 25.4029 34.6939 25.5256C34.7444 25.6493 34.783 25.776 34.8087 25.9066C34.8354 26.0372 34.8483 26.1698 34.8483 26.3024Z" fill="#F2F2F2"/><path d="M49.6921 36.3556V41.9685C49.6921 42.117 49.6772 42.2634 49.6485 42.4089C49.6199 42.5534 49.5773 42.6949 49.5209 42.8315C49.4635 42.969 49.3942 43.0986 49.3121 43.2214C49.23 43.3451 49.1359 43.4589 49.032 43.5638C48.9271 43.6686 48.8133 43.7617 48.6896 43.8438C48.5669 43.9269 48.4363 43.9962 48.2997 44.0526C48.1632 44.109 48.0217 44.1526 47.8772 44.1813C47.7317 44.21 47.5843 44.2248 47.4368 44.2248H43.146V34.1004H47.4368C47.5843 34.1004 47.7317 34.1142 47.8762 34.1429C48.0217 34.1726 48.1632 34.2152 48.2997 34.2716C48.4363 34.328 48.5669 34.3982 48.6896 34.4804C48.8124 34.5625 48.9262 34.6555 49.031 34.7604C49.1359 34.8653 49.23 34.9791 49.3121 35.1028C49.3942 35.2255 49.4635 35.3552 49.5199 35.4927C49.5773 35.6293 49.6199 35.7698 49.6485 35.9153C49.6772 36.0607 49.6921 36.2072 49.6921 36.3556Z" fill="#231123"/><path d="M8.93315 36.3556V41.9685C8.93216 42.117 8.94701 42.2634 8.9757 42.4089C9.0044 42.5534 9.04794 42.6949 9.10435 42.8315C9.16076 42.969 9.23003 43.0986 9.31216 43.2214C9.3943 43.3451 9.48831 43.4589 9.5932 43.5638C9.6981 43.6686 9.8119 43.7617 9.93461 43.8438C10.0583 43.9269 10.1879 43.9962 10.3245 44.0526C10.4611 44.109 10.6026 44.1526 10.748 44.1813C10.8935 44.21 11.04 44.2248 11.1884 44.2248H15.4792V34.1004H11.1884C11.04 34.1004 10.8935 34.1142 10.748 34.1429C10.6026 34.1726 10.4621 34.2152 10.3245 34.2716C10.1879 34.328 10.0583 34.3982 9.93461 34.4804C9.8119 34.5625 9.6981 34.6555 9.5932 34.7604C9.48831 34.8653 9.39529 34.9791 9.31315 35.1028C9.23003 35.2255 9.16076 35.3552 9.10435 35.4927C9.04794 35.6293 9.00539 35.7698 8.9757 35.9153C8.94701 36.0607 8.93315 36.2072 8.93315 36.3556Z" fill="#231123"/><path d="M47.692 41.8775C47.595 41.8775 47.503 41.8587 47.4139 41.8221C47.3239 41.7845 47.2457 41.732 47.1774 41.6638C47.1091 41.5955 47.0567 41.5173 47.0201 41.4282C46.9825 41.3392 46.9646 41.2461 46.9646 41.1502C46.9646 38.7672 46.4976 36.4556 45.5763 34.2785C45.1319 33.2305 44.5916 32.234 43.9553 31.2909C43.32 30.3469 42.5986 29.4721 41.7941 28.6676C40.9895 27.863 40.1147 27.1426 39.1717 26.5063C38.2276 25.87 37.2321 25.3297 36.1841 24.8854C34.006 23.9641 31.6944 23.498 29.3125 23.498C26.9295 23.498 24.6179 23.9651 22.4408 24.8854C21.3928 25.3297 20.3963 25.87 19.4532 26.5063C18.5092 27.1426 17.6354 27.863 16.8299 28.6676C16.0253 29.4731 15.3049 30.3469 14.6686 31.2909C14.0323 32.235 13.492 33.2305 13.0477 34.2785C12.1264 36.4556 11.6603 38.7672 11.6603 41.1502C11.6603 41.2461 11.6415 41.3392 11.6049 41.4282C11.5672 41.5173 11.5148 41.5965 11.4465 41.6647C11.3782 41.733 11.3001 41.7855 11.211 41.8221C11.1219 41.8587 11.0289 41.8775 10.9319 41.8775C10.8359 41.8775 10.7429 41.8587 10.6539 41.8221C10.5648 41.7855 10.4856 41.733 10.4183 41.6647C10.3501 41.5965 10.2966 41.5173 10.26 41.4282C10.2234 41.3392 10.2046 41.2461 10.2046 41.1502C10.2046 38.5723 10.7103 36.0696 11.7078 33.7115C12.1887 32.5774 12.7726 31.4997 13.4613 30.4775C14.1501 29.4563 14.9299 28.5102 15.8007 27.6394C16.6725 26.7676 17.6185 25.9878 18.6398 25.299C19.662 24.6103 20.7397 24.0254 21.8738 23.5455C24.2309 22.548 26.7336 22.0423 29.3125 22.0423C31.8903 22.0423 34.393 22.548 36.7502 23.5455C37.8842 24.0254 38.9629 24.6103 39.9841 25.299C41.0054 25.9878 41.9524 26.7676 42.8232 27.6384C43.6941 28.5102 44.4739 29.4563 45.1626 30.4775C45.8514 31.4988 46.4362 32.5774 46.9171 33.7115C47.9137 36.0686 48.4193 38.5713 48.4193 41.1502C48.4193 41.2461 48.4005 41.3392 48.3639 41.4282C48.3273 41.5173 48.2748 41.5955 48.2066 41.6638C48.1383 41.732 48.0591 41.7845 47.9701 41.8221C47.881 41.8587 47.788 41.8775 47.692 41.8775Z" fill="#231123"/><path d="M45.4832 41.1502C45.4832 50.0811 38.2434 53.3448 29.3124 53.3448C20.3814 53.3448 13.1406 50.0811 13.1406 41.1502C13.1406 32.2192 20.3814 24.9784 29.3124 24.9784C38.2434 24.9784 45.4832 32.2192 45.4832 41.1502Z" fill="#F2F2F2"/><mask id="mask1_388_377" style="mask-type:luminance" maskUnits="userSpaceOnUse" x="-10" y="-17" width="115" height="115"><path d="M104.5 -16.5H-9.5V97.5H104.5V-16.5Z" fill="black" fill-opacity="0.07"/></mask><g mask="url(#mask1_388_377)"><mask id="mask2_388_377" style="mask-type:luminance" maskUnits="userSpaceOnUse" x="15" y="27" width="31" height="27"><path d="M45.6002 27.4533H15.2002V53.2933H45.6002V27.4533Z" fill="white"/></mask><g mask="url(#mask2_388_377)"><mask id="mask3_388_377" style="mask-type:luminance" maskUnits="userSpaceOnUse" x="15" y="27" width="31" height="27"><path d="M15.3823 27.4731H45.3469V53.1924H15.3823V27.4731Z" fill="white"/></mask><g mask="url(#mask3_388_377)"><path d="M44.0447 34.9257C43.7191 34.1588 43.3362 33.4205 42.8958 32.713C42.4554 32.0054 41.9626 31.3355 41.4184 30.7041C40.8731 30.0738 40.2833 29.4879 39.647 28.9486C39.0117 28.4093 38.3378 27.9224 37.6263 27.488C38.2873 28.2163 38.8751 28.9981 39.3907 29.8353C39.9063 30.6725 40.3417 31.5492 40.695 32.4666C41.0483 33.3839 41.3145 34.326 41.4936 35.2928C41.6727 36.2586 41.7618 37.2334 41.7598 38.217C41.7598 42.3446 40.1943 45.4727 37.1058 47.5122C35.7124 48.4325 34.0024 49.1292 32.0243 49.5854C30.1668 50.0129 28.062 50.2296 25.7711 50.2296C23.4792 50.2296 21.3753 50.0129 19.5169 49.5854C17.9949 49.2341 16.6313 48.7403 15.4487 48.1119C16.1296 49.0025 16.9727 49.7803 17.9781 50.4443C19.3714 51.3646 21.0814 52.0623 23.0586 52.5175C24.9161 52.946 27.0209 53.1627 29.3128 53.1627C31.6037 53.1627 33.7075 52.946 35.566 52.5175C37.5432 52.0623 39.2532 51.3646 40.6465 50.4443C43.735 48.4048 45.3015 45.2777 45.3015 41.1502C45.3054 38.9899 44.8869 36.9147 44.0447 34.9257Z" fill="#231123"/></g></g></g><path d="M41.7527 40.7048C41.7527 45.3005 37.4816 46.6562 31.8163 45.5241C30.23 45.2065 28.5793 45.2728 27.0217 45.6933C21.6176 47.15 16.8716 45.3133 16.8716 40.7048C16.8716 34.0499 22.4419 31.194 29.3126 31.194C36.1833 31.194 41.7527 33.8312 41.7527 40.7048Z" fill="#231123"/><path d="M25.2689 37.3907V39.5292C25.2709 39.6381 25.261 39.745 25.2412 39.8508C25.2204 39.9577 25.1907 40.0606 25.1502 40.1616C25.1096 40.2615 25.0591 40.3575 24.9997 40.4476C24.9404 40.5376 24.8721 40.6217 24.7959 40.6989C24.7197 40.7751 24.6366 40.8444 24.5475 40.9047C24.4574 40.9651 24.3624 41.0166 24.2625 41.0581C24.1626 41.0997 24.0596 41.1314 23.9538 41.1521C23.8479 41.1739 23.74 41.1848 23.6321 41.1848C23.5243 41.1848 23.4164 41.1739 23.3105 41.1521C23.2046 41.1314 23.1017 41.0997 23.0018 41.0581C22.9018 41.0166 22.8068 40.9651 22.7168 40.9047C22.6267 40.8444 22.5446 40.7751 22.4684 40.6989C22.3922 40.6217 22.3239 40.5376 22.2645 40.4476C22.2052 40.3575 22.1547 40.2615 22.1141 40.1616C22.0735 40.0606 22.0439 39.9577 22.0231 39.8508C22.0033 39.745 21.9934 39.6381 21.9954 39.5292V37.3907C21.9934 37.2829 22.0033 37.175 22.0231 37.0691C22.0439 36.9622 22.0735 36.8593 22.1141 36.7594C22.1547 36.6584 22.2052 36.5634 22.2645 36.4724C22.3239 36.3823 22.3922 36.2982 22.4684 36.222C22.5446 36.1448 22.6267 36.0756 22.7168 36.0152C22.8068 35.9548 22.9018 35.9044 23.0018 35.8618C23.1017 35.8203 23.2046 35.7886 23.3105 35.7678C23.4164 35.746 23.5243 35.7361 23.6321 35.7361C23.74 35.7361 23.8479 35.746 23.9538 35.7678C24.0596 35.7886 24.1626 35.8203 24.2625 35.8618C24.3624 35.9044 24.4574 35.9548 24.5475 36.0152C24.6366 36.0756 24.7197 36.1448 24.7959 36.222C24.8721 36.2982 24.9404 36.3823 24.9997 36.4724C25.0591 36.5634 25.1096 36.6584 25.1502 36.7594C25.1907 36.8593 25.2204 36.9622 25.2412 37.0691C25.261 37.175 25.2709 37.2829 25.2689 37.3907Z" fill="#5CE1E6"/><path d="M36.6296 37.3907V39.5292C36.6306 39.6381 36.6207 39.745 36.6009 39.8508C36.5811 39.9577 36.5504 40.0606 36.5098 40.1616C36.4693 40.2615 36.4188 40.3575 36.3594 40.4476C36.3001 40.5376 36.2318 40.6217 36.1566 40.6989C36.0804 40.7751 35.9972 40.8444 35.9072 40.9047C35.8171 40.9651 35.7231 41.0166 35.6232 41.0581C35.5232 41.0997 35.4203 41.1314 35.3134 41.1521C35.2076 41.1739 35.1007 41.1848 34.9918 41.1848C34.884 41.1848 34.7771 41.1739 34.6702 41.1521C34.5643 41.1314 34.4614 41.0997 34.3615 41.0581C34.2615 41.0166 34.1665 40.9651 34.0775 40.9047C33.9874 40.8444 33.9043 40.7751 33.8281 40.6989C33.7519 40.6217 33.6846 40.5376 33.6252 40.4476C33.5648 40.3575 33.5154 40.2615 33.4748 40.1616C33.4342 40.0606 33.4035 39.9577 33.3838 39.8508C33.363 39.745 33.3541 39.6381 33.3551 39.5292V37.3907C33.3541 37.2829 33.363 37.175 33.3838 37.0691C33.4035 36.9622 33.4342 36.8593 33.4748 36.7594C33.5154 36.6584 33.5648 36.5634 33.6252 36.4724C33.6846 36.3823 33.7519 36.2992 33.8281 36.222C33.9043 36.1448 33.9874 36.0766 34.0775 36.0152C34.1665 35.9548 34.2615 35.9044 34.3615 35.8618C34.4614 35.8203 34.5643 35.7896 34.6702 35.7678C34.7771 35.747 34.884 35.7361 34.9918 35.7361C35.1007 35.7361 35.2076 35.747 35.3134 35.7678C35.4203 35.7896 35.5232 35.8203 35.6232 35.8618C35.7231 35.9044 35.8171 35.9548 35.9072 36.0152C35.9972 36.0766 36.0804 36.1448 36.1566 36.222C36.2318 36.2992 36.3001 36.3823 36.3594 36.4724C36.4188 36.5634 36.4693 36.6584 36.5098 36.7594C36.5504 36.8593 36.5811 36.9622 36.6009 37.0691C36.6207 37.175 36.6306 37.2829 36.6296 37.3907Z" fill="#5CE1E6"/><path d="M29.5115 44.1189C28.5437 44.1189 27.5769 43.7785 26.8901 43.0977C26.8446 43.0521 26.8099 43.0007 26.7852 42.9423C26.7605 42.8829 26.7486 42.8216 26.7486 42.7582C26.7476 42.6949 26.7605 42.6335 26.7842 42.5742C26.808 42.5158 26.8426 42.4633 26.8871 42.4178C26.9327 42.3723 26.9841 42.3377 27.0425 42.3129C27.1019 42.2882 27.1632 42.2763 27.2266 42.2753C27.2899 42.2753 27.3512 42.2872 27.4106 42.3109C27.47 42.3357 27.5215 42.3693 27.567 42.4148C28.5684 43.4074 30.4556 43.4074 31.4501 42.4158C31.4946 42.3703 31.5471 42.3357 31.6055 42.3119C31.6648 42.2872 31.7262 42.2753 31.7895 42.2753C31.8538 42.2753 31.9152 42.2872 31.9736 42.3119C32.033 42.3367 32.0844 42.3713 32.1299 42.4158C32.1745 42.4614 32.2091 42.5138 32.2338 42.5722C32.2576 42.6316 32.2705 42.6929 32.2705 42.7563C32.2695 42.8206 32.2576 42.8809 32.2329 42.9403C32.2091 42.9987 32.1735 43.0511 32.129 43.0957C31.4452 43.7785 30.4793 44.1189 29.5115 44.1189Z" fill="#5CE1E6"/><path d="M43.0982 48.1247H30.3751C30.2792 48.1238 30.1881 48.104 30.1 48.0664C30.012 48.0287 29.9348 47.9763 29.8675 47.908C29.8012 47.8397 29.7497 47.7616 29.7131 47.6735C29.6765 47.5844 29.6587 47.4934 29.6587 47.3974C29.6587 47.3024 29.6765 47.2104 29.7131 47.1213C29.7497 47.0332 29.8012 46.9551 29.8675 46.8868C29.9348 46.8195 30.012 46.766 30.1 46.7284C30.1881 46.6908 30.2792 46.671 30.3751 46.6701H43.0982C44.733 46.6701 46.063 45.3401 46.063 43.7053V41.3164C46.063 41.2204 46.0808 41.1274 46.1184 41.0383C46.155 40.9493 46.2075 40.8701 46.2758 40.8018C46.3441 40.7335 46.4222 40.6811 46.5123 40.6445C46.6013 40.6079 46.6934 40.5891 46.7904 40.5891C46.8863 40.5891 46.9794 40.6079 47.0684 40.6445C47.1575 40.6811 47.2367 40.7335 47.3049 40.8018C47.3732 40.8701 47.4257 40.9493 47.4623 41.0383C47.4989 41.1274 47.5177 41.2204 47.5177 41.3164V43.7053C47.5177 46.1426 45.5356 48.1247 43.0982 48.1247Z" fill="#231123"/><path d="M32.4573 47.3301C32.4573 47.438 32.4464 47.5448 32.4256 47.6497C32.4048 47.7556 32.3732 47.8576 32.3326 47.9575C32.291 48.0565 32.2405 48.1505 32.1812 48.2405C32.1208 48.3296 32.0535 48.4127 31.9773 48.4889C31.9011 48.5641 31.819 48.6324 31.7289 48.6918C31.6399 48.7521 31.5459 48.8026 31.4459 48.8432C31.347 48.8847 31.244 48.9154 31.1391 48.9362C31.0333 48.957 30.9274 48.9679 30.8195 48.9679H28.6592C28.5514 48.9679 28.4445 48.957 28.3396 48.9362C28.2337 48.9154 28.1318 48.8847 28.0318 48.8432C27.9329 48.8016 27.8389 48.7521 27.7488 48.6918C27.6598 48.6324 27.5766 48.5641 27.5014 48.4879C27.4252 48.4127 27.357 48.3296 27.2976 48.2405C27.2372 48.1505 27.1867 48.0565 27.1462 47.9575C27.1046 47.8576 27.0739 47.7556 27.0532 47.6497C27.0324 47.5448 27.0215 47.438 27.0215 47.3301C27.0215 47.2232 27.0324 47.1164 27.0532 47.0115C27.0739 46.9056 27.1046 46.8036 27.1462 46.7037C27.1867 46.6047 27.2372 46.5097 27.2976 46.4207C27.357 46.3316 27.4252 46.2485 27.5014 46.1723C27.5766 46.0971 27.6598 46.0288 27.7488 45.9694C27.8389 45.9091 27.9329 45.8586 28.0318 45.818C28.1318 45.7765 28.2337 45.7458 28.3396 45.725C28.4445 45.7032 28.5514 45.6933 28.6592 45.6933H30.8195C30.9274 45.6933 31.0333 45.7032 31.1391 45.725C31.244 45.7458 31.347 45.7765 31.4459 45.818C31.5459 45.8586 31.6399 45.9091 31.7289 45.9694C31.819 46.0288 31.9011 46.0961 31.9773 46.1723C32.0535 46.2485 32.1208 46.3316 32.1812 46.4207C32.2405 46.5097 32.291 46.6047 32.3326 46.7037C32.3732 46.8036 32.4048 46.9056 32.4256 47.0115C32.4464 47.1164 32.4573 47.2232 32.4573 47.3301Z" fill="#231123"/><mask id="mask4_388_377" style="mask-type:luminance" maskUnits="userSpaceOnUse" x="58" y="13" width="27" height="20"><path d="M84.1065 13.7733H58.0132V32.52H84.1065V13.7733Z" fill="white"/></mask><g mask="url(#mask4_388_377)"><path d="M62.8634 17.4391H64.4032C64.4685 17.4391 64.5269 17.4609 64.5774 17.5024C64.6298 17.542 64.6565 17.6192 64.6565 17.732V27.8416C64.6565 28.0375 64.5635 28.1345 64.3795 28.1345H62.8634C62.6892 28.1345 62.6022 28.0375 62.6022 27.8416V23.5903H60.9001V27.8416C60.9001 28.0375 60.815 28.1345 60.6467 28.1345H59.099C58.9298 28.1345 58.8457 28.0375 58.8457 27.8416V17.7399C58.8457 17.54 58.9298 17.4391 59.099 17.4391H60.6467C60.815 17.4391 60.9001 17.54 60.9001 17.7399V21.726H62.6022V17.7399C62.6022 17.6558 62.6229 17.5845 62.6655 17.5262C62.71 17.4688 62.7763 17.4391 62.8634 17.4391Z" style="fill: rgb(255, 255, 255);"/><path d="M68.2291 21.7497C68.0173 21.7497 67.8451 21.82 67.7105 21.9595C67.5759 22.1 67.5086 22.2564 67.5086 22.4305V23.2974H68.9138V22.4385C68.9138 22.2593 68.8515 22.1 68.7278 21.9595C68.6061 21.82 68.4398 21.7497 68.2291 21.7497ZM70.6793 25.708V25.9297C70.6793 26.3651 70.5734 26.761 70.3626 27.1172C70.1538 27.4715 69.8609 27.7535 69.4838 27.9643C69.1088 28.1751 68.6744 28.281 68.1816 28.281C67.8194 28.281 67.479 28.2196 67.1603 28.0989C66.8407 27.9782 66.5606 27.8099 66.3211 27.5962C66.0807 27.3824 65.8917 27.133 65.7551 26.848C65.6205 26.563 65.5532 26.2573 65.5532 25.9297V22.4147C65.5532 22.0901 65.6205 21.7883 65.7551 21.5083C65.8917 21.2262 66.0807 20.9768 66.3211 20.7601C66.5606 20.5444 66.8407 20.3752 67.1603 20.2535C67.479 20.1327 67.8194 20.0714 68.1816 20.0714C68.5507 20.0714 68.8881 20.1327 69.1949 20.2535C69.5036 20.3752 69.7698 20.5444 69.9945 20.7601C70.2181 20.9768 70.3903 21.2262 70.5091 21.5083C70.6298 21.7883 70.6911 22.0901 70.6911 22.4147V24.3305C70.6911 24.4176 70.6634 24.4879 70.608 24.5403C70.5526 24.5938 70.4794 24.6195 70.3903 24.6195H67.5086V25.9297C67.5086 26.1019 67.5759 26.2583 67.7105 26.4008C67.8451 26.5413 68.0173 26.6105 68.2291 26.6105C68.4507 26.6105 68.619 26.5383 68.7357 26.3928C68.8545 26.2454 68.9138 26.0871 68.9138 25.9178V25.6922C68.9138 25.6447 68.9317 25.6032 68.9693 25.5655C69.0059 25.526 69.0603 25.5062 69.1316 25.5062H70.4774C70.5378 25.5062 70.5862 25.521 70.6238 25.5497C70.6605 25.5794 70.6793 25.6319 70.6793 25.708Z" style="fill: rgb(255, 255, 255);"/><path d="M74.5252 26.666V27.8891C74.5252 27.9395 74.5035 27.994 74.4619 28.0514C74.4223 28.1068 74.2996 28.1345 74.0938 28.1345H73.6069C73.314 28.1345 73.0369 28.0989 72.7756 28.0276C72.5144 27.9544 72.2848 27.8317 72.0869 27.6595C71.889 27.4853 71.7346 27.2498 71.6238 26.951C71.5129 26.6531 71.4575 26.277 71.4575 25.8228V17.7003C71.4575 17.5262 71.5456 17.4391 71.7227 17.4391H73.1675C73.3357 17.4391 73.4209 17.5262 73.4209 17.7003V25.708C73.4209 25.9248 73.4723 26.091 73.5752 26.2068C73.6781 26.3236 73.8721 26.381 74.1571 26.381H74.2877C74.4065 26.381 74.4748 26.4156 74.4936 26.4839C74.5143 26.5502 74.5252 26.6105 74.5252 26.666Z" style="fill: rgb(255, 255, 255);"/><path d="M77.0467 22.478V25.9178C77.0517 26.0821 77.118 26.2305 77.2446 26.3651C77.3713 26.4997 77.5376 26.567 77.7434 26.567C77.9542 26.567 78.1204 26.4958 78.2421 26.3533C78.3658 26.2108 78.4282 26.0524 78.4282 25.8783V22.478C78.4282 22.3068 78.3658 22.1495 78.2421 22.007C78.1204 21.8625 77.9542 21.7893 77.7434 21.7893C77.5376 21.7893 77.3693 21.8605 77.2407 22.003C77.111 22.1436 77.0467 22.3019 77.0467 22.478ZM80.3836 22.4226V25.9376C80.3836 26.3968 80.2787 26.8035 80.0709 27.1568C79.8621 27.5111 79.5771 27.7862 79.2159 27.9841C78.8567 28.182 78.445 28.281 77.9809 28.281C77.8354 28.281 77.682 28.2622 77.5217 28.2255C77.3634 28.1909 77.2051 28.1395 77.0467 28.0712V30.3591C77.0467 30.5352 76.9636 30.6243 76.7974 30.6243H75.3446C75.1754 30.6243 75.0913 30.5352 75.0913 30.3591V22.4226C75.0913 22.0723 75.1586 21.7537 75.2932 21.4687C75.4297 21.1817 75.6197 20.9333 75.8632 20.7245C76.1056 20.5167 76.3867 20.3554 76.7063 20.2416C77.025 20.1288 77.3683 20.0714 77.7355 20.0714C78.0996 20.0714 78.442 20.1288 78.7646 20.2416C79.0863 20.3554 79.3683 20.5167 79.6117 20.7245C79.8542 20.9333 80.0432 21.1817 80.1778 21.4687C80.3143 21.7537 80.3836 22.0723 80.3836 22.4226Z" style="fill: rgb(255, 255, 255);"/><path d="M81.3907 24.9362V17.7241C81.3907 17.5242 81.4778 17.4233 81.6519 17.4233H82.8751C83.0542 17.4233 83.1442 17.5242 83.1442 17.7241V24.9362C83.1442 25.1321 83.0542 25.2291 82.8751 25.2291H81.6519C81.4778 25.2291 81.3907 25.1321 81.3907 24.9362ZM83.2155 26.5947V27.8653C83.2155 27.9683 83.1838 28.0395 83.1205 28.0791C83.0591 28.1167 83.0136 28.1345 82.9819 28.1345H81.553C81.5154 28.1345 81.4659 28.1177 81.4026 28.083C81.3412 28.0464 81.3115 27.9742 81.3115 27.8653V26.5947C81.3115 26.4977 81.3363 26.4265 81.3867 26.381C81.4392 26.3335 81.4916 26.3097 81.5451 26.3097H82.9661C83.0631 26.3097 83.1294 26.3444 83.164 26.4126C83.1977 26.4789 83.2155 26.5393 83.2155 26.5947Z" style="fill: rgb(255, 255, 255);"/></g><mask id="mask5_388_377" style="mask-type:luminance" maskUnits="userSpaceOnUse" x="59" y="25" width="24" height="42"><path d="M82.8399 25.1733H59.5332V66.9733H82.8399V25.1733Z" fill="white"/></mask><g mask="url(#mask5_388_377)"><path d="M65.5618 39.2427V47.6422H69.2827V39.2427C69.2827 38.6944 69.1184 38.2076 68.7918 37.782C68.4673 37.3575 68.013 37.1447 67.4302 37.1447C66.8364 37.1447 66.3753 37.3575 66.0487 37.782C65.7241 38.2076 65.5618 38.6944 65.5618 39.2427ZM73.9456 38.9814V56.7781C73.9456 56.9522 73.9021 57.1126 73.815 57.257C73.7279 57.4025 73.5854 57.4747 73.3875 57.4747H69.8408C69.6666 57.4747 69.5291 57.4055 69.4291 57.2649C69.3312 57.1254 69.2827 56.9631 69.2827 56.7781V51.7114H65.5618V56.7939C65.5618 56.9819 65.5262 57.1422 65.455 57.2768C65.3857 57.4094 65.2472 57.4747 65.0393 57.4747H61.3541C61.2245 57.4747 61.1166 57.4094 61.0296 57.2768C60.9425 57.1422 60.8989 56.9819 60.8989 56.7939V38.9814C60.8989 38.1422 61.0731 37.3565 61.4214 36.6222C61.7717 35.889 62.2467 35.2467 62.8464 34.6945C63.4451 34.1404 64.1378 33.7069 64.9246 33.3922C65.7103 33.0785 66.5405 32.9212 67.4143 32.9212C68.2872 32.9212 69.1164 33.0785 69.9002 33.3922C70.6859 33.7069 71.3816 34.1404 71.9862 34.6945C72.5928 35.2467 73.0708 35.889 73.4191 36.6222C73.7694 37.3565 73.9456 38.1422 73.9456 38.9814Z" style="fill: rgb(255, 255, 255);"/><path d="M80.9463 33.986V56.8097C80.9463 57.2531 80.7544 57.4747 80.3724 57.4747H76.8772C76.4942 57.4747 76.3032 57.2531 76.3032 56.8097V33.986C76.3032 33.5328 76.4942 33.3051 76.8772 33.3051H80.3724C80.7544 33.3051 80.9463 33.5328 80.9463 33.986Z" style="fill: rgb(255, 255, 255);"/></g></g><defs><clipPath id="clip0_388_377"><rect width="95" height="95" fill="white" transform="translate(0 -7)"/></clipPath><bx:export><bx:file format="svg" path="Logo_Letra.svg"/></bx:export></defs></svg>